<svg width="60" height="13" viewBox="0 0 60 13" fill="none" xmlns="http://www.w3.org/2000/svg">
<path d="M1.19385 9.96387H3.79395V2.8374C3.45215 2.91553 3.12256 3.01807 2.80518 3.14502C2.49268 3.27197 2.20703 3.42578 1.94824 3.60645L0.805664 1.97314C1.22559 1.70947 1.65283 1.4873 2.0874 1.30664C2.52686 1.12109 2.96875 0.974609 3.41309 0.867188C3.8623 0.754883 4.31152 0.674316 4.76074 0.625488C5.21484 0.57666 5.6665 0.552246 6.11572 0.552246L6.1084 0.566895H6.11572V9.96387H8.59863V12H1.19385V9.96387ZM10.3857 0.552246H12.7075V9.96387H19.3652V12H10.3857V0.552246ZM20.9399 9.27539C20.9399 8.86035 21.0303 8.48193 21.2109 8.14014C21.3916 7.79834 21.6626 7.50537 22.0239 7.26123C22.3853 7.01221 22.8345 6.82178 23.3716 6.68994C23.9136 6.55322 24.5435 6.48486 25.2612 6.48486C25.7935 6.48486 26.3525 6.52393 26.9385 6.60205C27.5293 6.68018 28.1372 6.7998 28.7622 6.96094C28.7378 6.6875 28.6548 6.43604 28.5132 6.20654C28.3716 5.97217 28.1738 5.77197 27.9199 5.60596C27.6709 5.43506 27.3682 5.30322 27.0117 5.21045C26.6602 5.11768 26.2598 5.07129 25.8105 5.07129C25.5664 5.07129 25.2979 5.08594 25.0049 5.11523C24.7119 5.14453 24.4092 5.18848 24.0967 5.24707C23.7842 5.30566 23.4741 5.37891 23.1665 5.4668C22.8638 5.55469 22.5806 5.65967 22.3169 5.78174L21.6577 4.00195C21.9849 3.88477 22.334 3.77734 22.7051 3.67969C23.0811 3.58203 23.4644 3.49902 23.855 3.43066C24.2456 3.35742 24.6362 3.30127 25.0269 3.26221C25.4175 3.22314 25.7959 3.20361 26.1621 3.20361C27.7783 3.20361 28.9795 3.61621 29.7656 4.44141C30.5518 5.2666 30.9448 6.53125 30.9448 8.23535V12H28.7769V11.187C28.5522 11.3188 28.3057 11.4434 28.0371 11.5605C27.7734 11.6777 27.4854 11.7803 27.1729 11.8682C26.8604 11.9561 26.5234 12.0244 26.1621 12.0732C25.8057 12.127 25.4272 12.1538 25.0269 12.1538C24.353 12.1538 23.7598 12.0806 23.2471 11.9341C22.7393 11.7876 22.3145 11.585 21.9727 11.3262C21.6309 11.0674 21.3721 10.7646 21.1963 10.418C21.0254 10.0664 20.9399 9.68555 20.9399 9.27539ZM23.2251 9.20215C23.2251 9.34375 23.2617 9.48047 23.335 9.6123C23.4082 9.73926 23.5254 9.854 23.6865 9.95654C23.8477 10.0542 24.0527 10.1348 24.3018 10.1982C24.5557 10.2568 24.8608 10.2861 25.2173 10.2861C25.5981 10.2861 25.9668 10.252 26.3232 10.1836C26.6797 10.1152 27.0117 10.0249 27.3193 9.9126C27.627 9.80029 27.9053 9.6709 28.1543 9.52441C28.4033 9.37793 28.6108 9.22656 28.7769 9.07031V8.68945C28.4448 8.59668 28.1152 8.51855 27.7881 8.45508C27.4658 8.3916 27.1558 8.34277 26.8579 8.30859C26.5649 8.26953 26.2866 8.24268 26.0229 8.22803C25.7642 8.21338 25.5371 8.20605 25.3418 8.20605C24.9365 8.20605 24.5996 8.23291 24.3311 8.28662C24.0625 8.34033 23.8452 8.41357 23.6792 8.50635C23.5132 8.59424 23.396 8.69922 23.3276 8.82129C23.2593 8.94336 23.2251 9.07031 23.2251 9.20215ZM34.0723 0.552246H36.394L43.5278 4.2876V0.552246H45.8496V12H43.5278V6.74854L36.394 3.03516V12H34.0723V0.552246ZM48.4058 7.64941C48.4058 7.06348 48.5254 6.50439 48.7646 5.97217C49.0039 5.43506 49.3481 4.96143 49.7974 4.55127C50.2466 4.14111 50.7959 3.81396 51.4453 3.56982C52.0996 3.32568 52.8418 3.20361 53.6719 3.20361C54.4971 3.20361 55.2393 3.32812 55.8984 3.57715C56.5625 3.82129 57.124 4.1582 57.583 4.58789C58.0469 5.01758 58.4009 5.52295 58.645 6.104C58.894 6.68506 59.0186 7.30762 59.0186 7.97168C59.0186 8.05469 59.0161 8.14502 59.0112 8.24268C59.0112 8.33545 59.0063 8.4209 58.9966 8.49902H50.8228C50.9155 8.75781 51.0645 8.99463 51.2695 9.20947C51.4795 9.42432 51.7407 9.60986 52.0532 9.76611C52.3657 9.92236 52.7271 10.0444 53.1372 10.1323C53.5474 10.2153 54.0015 10.2568 54.4995 10.2568C54.9976 10.2568 55.4932 10.2056 55.9863 10.103C56.4795 9.99561 56.9507 9.86133 57.3999 9.7002L58.1323 11.3555C57.8491 11.4873 57.561 11.6045 57.2681 11.707C56.98 11.8047 56.6772 11.8877 56.3599 11.9561C56.0474 12.0195 55.7178 12.0684 55.3711 12.1025C55.0293 12.1367 54.668 12.1538 54.2871 12.1538C53.3154 12.1538 52.4634 12.0366 51.731 11.8022C50.9985 11.5679 50.3857 11.248 49.8926 10.8428C49.3994 10.4375 49.0283 9.96143 48.7793 9.41455C48.5303 8.86768 48.4058 8.2793 48.4058 7.64941ZM56.7188 6.80713C56.6406 6.56787 56.5186 6.3457 56.3525 6.14062C56.1914 5.93066 55.9888 5.75 55.7446 5.59863C55.5005 5.44238 55.2173 5.32031 54.895 5.23242C54.5728 5.14453 54.2188 5.10059 53.833 5.10059C53.4229 5.10059 53.0493 5.14697 52.7124 5.23975C52.3755 5.33252 52.0801 5.45703 51.8262 5.61328C51.5723 5.76953 51.3599 5.9502 51.189 6.15527C51.0229 6.36035 50.9009 6.57764 50.8228 6.80713H56.7188Z" fill="white"/>
</svg>
