<svg width="17" height="18" viewBox="0 0 17 18" fill="none" xmlns="http://www.w3.org/2000/svg">
<path d="M8.49982 0.5C3.80555 0.5 0 4.31961 0 9.03123C0 13.032 2.74442 16.3892 6.44662 17.3113V11.6384H4.69396V9.03123H6.44662V7.90784C6.44662 5.00413 7.75591 3.65826 10.5962 3.65826C11.1348 3.65826 12.064 3.76439 12.4441 3.87018V6.23334C12.2435 6.21215 11.895 6.2016 11.4622 6.2016C10.0685 6.2016 9.53 6.73156 9.53 8.10918V9.03123H12.3064L11.8294 11.6384H9.53V17.5C13.7388 16.9898 17 13.3931 17 9.03123C16.9996 4.31961 13.1941 0.5 8.49982 0.5Z" fill="white"/>
</svg>
