<svg width="35" height="35" viewBox="0 0 35 35" fill="none" xmlns="http://www.w3.org/2000/svg">
<path opacity="0.25" d="M34 17.5C34 26.6127 26.6127 34 17.5 34C8.3873 34 1 26.6127 1 17.5C1 8.3873 8.3873 1 17.5 1C26.6127 1 34 8.3873 34 17.5Z" stroke="white" stroke-width="2"/>
<path d="M20.1194 15.5107C20.4544 15.5107 20.726 15.2391 20.726 14.904C20.726 14.569 20.4544 14.2974 20.1194 14.2974C19.7843 14.2974 19.5127 14.569 19.5127 14.904C19.5127 15.2391 19.7843 15.5107 20.1194 15.5107Z" fill="white"/>
<path fill-rule="evenodd" clip-rule="evenodd" d="M14.9722 17.4999C14.9722 18.894 16.1059 20.0277 17.4999 20.0277C18.894 20.0277 20.0277 18.894 20.0277 17.4999C20.0277 16.1059 18.894 14.9722 17.4999 14.9722C16.1059 14.9722 14.9722 16.1059 14.9722 17.4999ZM16.2361 17.5C16.2361 16.803 16.8029 16.2361 17.4999 16.2361C18.197 16.2361 18.7638 16.803 18.7638 17.5C18.7638 18.197 18.197 18.7639 17.4999 18.7639C16.8029 18.7639 16.2361 18.197 16.2361 17.5Z" fill="white"/>
<path fill-rule="evenodd" clip-rule="evenodd" d="M14.9721 22.5554H20.0277C21.3269 22.5554 22.5554 21.3269 22.5554 20.0277V14.9721C22.5554 13.6728 21.3269 12.4443 20.0277 12.4443H14.9721C13.6728 12.4443 12.4443 13.6728 12.4443 14.9721V20.0277C12.4443 21.3269 13.6728 22.5554 14.9721 22.5554ZM13.7082 14.9722C13.7082 14.3814 14.3812 13.7083 14.9721 13.7083H20.0277C20.6185 13.7083 21.2915 14.3814 21.2915 14.9722V20.0278C21.2915 20.6186 20.6185 21.2917 20.0277 21.2917H14.9721C14.3699 21.2917 13.7082 20.63 13.7082 20.0278V14.9722Z" fill="white"/>
</svg>
