<svg width="20" height="14" viewBox="0 0 20 14" fill="none" xmlns="http://www.w3.org/2000/svg">
<path d="M19.8008 3.02083C19.8008 3.02083 19.6054 1.64842 19.0038 1.04582C18.2421 0.25271 17.3908 0.24882 17 0.202166C14.2033 7.41541e-08 10.0037 0 10.0037 0H9.99626C9.99626 0 5.79709 7.41541e-08 3.00001 0.202166C2.60959 0.24882 1.75791 0.25271 0.996246 1.04582C0.39458 1.64842 0.202916 3.02083 0.202916 3.02083C0.202916 3.02083 0 4.63426 0 6.24383V7.7523C0 9.36183 0.199178 10.9753 0.199178 10.9753C0.199178 10.9753 0.394576 12.3477 0.992076 12.9503C1.75374 13.7434 2.75374 13.7162 3.19916 13.8017C4.80082 13.9533 10 14 10 14C10 14 14.2033 13.9922 17 13.7939C17.3908 13.7473 18.2421 13.7434 19.0038 12.9503C19.6054 12.3477 19.8008 10.9753 19.8008 10.9753C19.8008 10.9753 20 9.36573 20 7.7523V6.24383C20 4.63426 19.8008 3.02083 19.8008 3.02083ZM7.93376 9.58345V3.9889L13.3358 6.79588L7.93376 9.58345Z" fill="white"/>
</svg>
